# xmcd
#
# Track frame offsets:
#	150
#	16932
#	34135
#	53244
#	69067
#	84065
#	107372
#	135162
#	151394
#	163710
#	181149
#	197922
#	214654
#	243498
#
# Disc length: 3597 seconds
#
# Revision: 0
# Processed by: cddbd v1.5.1PL2 Copyright (c) Steve Scherf et al.
# Submitted via: audiograbber 1.83.01
#
DISCID=a40e0b0e
DTITLE=Petra´s House Music - a
DYEAR=1900
DGENRE=
TTITLE0=for you 12
TTITLE1=for you 15
TTITLE2=for you 14
TTITLE3=House Of Pain - Jump Around
TTITLE4=House Of Pain - Jump Around remix
TTITLE5=Benassi Bros. ft. Dhany - Hit My Heart (1)
TTITLE6=Floorfilla - Floorfilla Anthem II
TTITLE7=12 - Floorfilla techno2004
TTITLE8=Max Graham vs. Yes - Owner Of A Lonely Heart
TTITLE9=Poker Pets ft. Nate James - Lovin´ You
TTITLE10=House - House Music-Antoine C.
TTITLE11=Antoine Clamaran - Feel It
TTITLE12=Axel F - The Crazy Frog
TTITLE13=Barry White - Let The Music Play
EXTD=
EXTT0=
EXTT1=
EXTT2=
EXTT3=
EXTT4=
EXTT5=
EXTT6=
EXTT7=
EXTT8=
EXTT9=
EXTT10=
EXTT11=
EXTT12=
EXTT13=
PLAYORDER=
